<svg xmlns="http://www.w3.org/2000/svg" xmlns:xlink="http://www.w3.org/1999/xlink" width="104" height="134" viewBox="0 0 104 134">
  <defs>
    <polygon id="rapiboy-a" points="0 .319 103.934 .319 103.934 114.485 0 114.485"/>
  </defs>
  <g fill="none" fill-rule="evenodd">
    <polygon fill="#FEFEFE" points="1.289 35.703 1.289 80.875 51.966 97.585 102.645 80.875 102.645 35.703 52.9 52.358"/>
    <polygon fill="#FBDB6E" points="1.289 80.875 51.966 97.585 102.645 80.875 102.645 115.649 51.966 132.359 1.289 115.649"/>
    <g transform="translate(0 .094)">
      <path fill="#30AED5" d="M61.2186975,101.978857 C63.1096066,101.978857 64.8849124,102.475394 66.4268628,103.343142 C67.9335736,99.2108246 71.867524,96.2641256 76.4839207,96.2641256 C80.2201851,96.2641256 83.5086479,98.1952 85.4257719,101.12065 C86.8753256,100.526106 88.4593917,100.196093 90.1203835,100.196093 C97.0123174,100.196093 102.644648,103.025705 102.644648,115.555355 L51.9665653,132.265459 L1.28934215,115.555355 C1.28934215,103.025705 6.92124298,100.196093 13.8131769,100.196093 C15.4754579,100.196093 17.0590942,100.526106 18.5086479,101.12065 C20.4257719,98.1952 23.7129455,96.2641256 27.4496397,96.2641256 C32.0660364,96.2641256 36.0008463,99.2108246 37.5066975,103.343142 C39.0486479,102.475394 40.8239537,101.978857 42.7148628,101.978857 L61.2186975,101.978857 Z"/>
      <path fill="#30AED5" d="M63.4983603,116.83074 C60.6899306,116.83074 58.4135339,114.532792 58.4135339,111.698844 L58.4135339,111.60474 L58.4135339,20.5476207 L45.5209719,20.5476207 L45.5209719,111.60474 L45.5209719,111.698844 C45.5209719,114.532792 43.2437157,116.83074 40.435286,116.83074"/>
      <g transform="translate(0 19.08)">
        <mask id="rapiboy-b" fill="#fff">
          <use xlink:href="#rapiboy-a"/>
        </mask>
        <path fill="#2C2A66" d="M44.3832463,77.2786239 L44.3832463,81.8753877 C43.8344529,81.7955948 43.2774942,81.7500608 42.7149488,81.7500608 C41.1197091,81.7500608 39.5395107,82.0770382 38.0792132,82.7032388 C36.101924,78.6684945 31.9754446,76.0353294 27.4497256,76.0353294 C23.7650314,76.0353294 20.3291636,77.7491417 18.0892959,80.6611482 C16.7119405,80.2001709 15.2769983,79.9668634 13.8132628,79.9668634 C8.47230413,79.9668634 4.76956033,81.6932518 2.5786843,85.2826304 L2.5786843,63.4944039 L44.3832463,77.2786239 Z M2.5786843,17.9968505 L44.3832463,31.7815042 L44.3832463,74.5413812 L2.5786843,60.7567275 L2.5786843,17.9968505 Z M57.2758083,84.9157566 L57.2758083,92.6179379 C57.2758083,96.0806887 60.0674777,98.8981579 63.4981884,98.8981579 C64.126486,98.8981579 64.6361719,98.3838408 64.6361719,97.7498343 C64.6361719,97.1158278 64.126486,96.6019443 63.4981884,96.6019443 C61.321924,96.6019443 59.5513455,94.814844 59.5513455,92.6179379 L59.5513455,84.2002227 C60.0975603,84.1013489 60.654519,84.0458408 61.2187835,84.0458408 C62.847114,84.0458408 64.4561058,84.4673553 65.8725686,85.2648505 C66.1635107,85.4283392 66.5103207,85.4552259 66.8218909,85.3390058 C67.1338909,85.2223521 67.3797091,84.9738667 67.4944529,84.6590317 C68.8743868,80.8740738 72.4873124,78.331543 76.4840066,78.331543 C79.7071471,78.331543 82.6952132,79.9542874 84.4769653,82.6728828 C84.7752132,83.12909 85.3523702,83.3086239 85.8543207,83.1035042 C87.2136264,82.5458214 88.6489983,82.263077 90.1204694,82.263077 C95.2203372,82.263077 100.419907,83.6542485 101.355048,93.220721 L101.355048,95.5308117 L51.9666512,111.815931 L2.5786843,95.5308117 L2.5786843,93.220721 C3.51382479,83.6542485 8.71339504,82.263077 13.8132628,82.263077 C15.2851636,82.263077 16.7209653,82.5458214 18.0802711,83.1035042 C18.5826512,83.3090576 19.1589488,83.1295236 19.4576264,82.6728828 C21.2393785,79.9542874 24.2270149,78.331543 27.4497256,78.331543 C31.4472793,78.331543 35.060205,80.8740738 36.4392793,84.6585981 C36.5535934,84.9738667 36.7998413,85.2223521 37.1114116,85.3390058 C37.4238413,85.4556595 37.7702215,85.4287728 38.0611636,85.2648505 C39.4776264,84.4673553 41.0866182,84.0458408 42.7149488,84.0458408 C43.279643,84.0458408 43.8370314,84.1013489 44.3832463,84.2002227 L44.3832463,92.6179379 C44.3832463,94.814844 42.612238,96.6019443 40.435114,96.6019443 C39.8072463,96.6019443 39.2975603,97.1158278 39.2975603,97.7498343 C39.2975603,98.3838408 39.8072463,98.8981579 40.435114,98.8981579 C43.867114,98.8981579 46.6587835,96.0806887 46.6587835,92.6179379 L46.6587835,84.9157566 L46.6587835,82.4378408 L46.6587835,78.0288505 L46.6587835,75.2916078 L46.6587835,32.5317307 L46.6587835,29.794488 L46.6587835,2.61460453 L57.2758083,2.61460453 L57.2758083,29.7940544 L57.2758083,32.5312971 L57.2758083,75.2911741 L57.2758083,78.0284168 L57.2758083,82.4378408 L57.2758083,84.9157566 Z M101.355048,63.4944039 L101.355048,85.2826304 C99.1646017,81.6932518 95.4609983,79.9668634 90.1204694,79.9668634 C88.6567339,79.9668634 87.2226512,80.2001709 85.8452959,80.6611482 C83.6049983,77.7491417 80.1691306,76.0353294 76.4840066,76.0353294 C71.9591471,76.0353294 67.832238,78.6689282 65.854519,82.7032388 C64.3946512,82.0770382 62.8140231,81.7500608 61.2187835,81.7500608 C60.656238,81.7500608 60.1001388,81.7955948 59.5513455,81.8753877 L59.5513455,77.2781903 L101.355048,63.4944039 Z M59.5513455,31.7810706 L101.355048,17.9968505 L101.355048,60.7567275 L59.5513455,74.5409476 L59.5513455,31.7810706 Z M103.401527,15.1498926 C103.066321,14.90531 102.636569,14.8367922 102.244205,14.9668893 L59.5513455,29.0438278 L59.5513455,1.46671456 C59.5513455,0.832708091 59.0416595,0.318824595 58.413362,0.318824595 L45.5208,0.318824595 C44.8929322,0.318824595 44.3832463,0.832708091 44.3832463,1.46671456 L44.3832463,29.0442615 L1.68952727,14.9668893 C1.29630413,14.8367922 0.866981818,14.90531 0.532204959,15.1498926 C0.198287603,15.3949087 0.000171900826,15.786501 0.000171900826,16.2032453 L0.000171900826,61.700365 L0.000171900826,96.4744492 C0.000171900826,97.0373359 0.359014876,97.5360414 0.888899174,97.7108052 L51.5661223,114.420909 C51.6963372,114.463841 51.8312793,114.485524 51.9666512,114.485524 C52.1015934,114.485524 52.2365355,114.463841 52.3667504,114.420909 L103.044833,97.7108052 C103.574717,97.5360414 103.93356,97.0373359 103.93356,96.4744492 L103.93356,61.700365 L103.93356,16.2032453 C103.93356,15.786501 103.735445,15.3949087 103.401527,15.1498926 Z" mask="url(#rapiboy-b)"/>
      </g>
      <path fill="#2C2A66" d="M87.1829851 114.728979C86.7987868 114.728979 86.424043 114.532098 86.2113157 114.176066 84.2211339 110.848616 79.9197455 109.774882 76.6205388 111.782713 76.084638 112.107956 75.3880099 111.935361 75.0648364 111.39459 74.7416628 110.853386 74.9135636 110.150862 75.4494645 109.824318 79.816605 107.165134 85.5155471 108.586661 88.152076 112.994351 88.4752496 113.534687 88.302919 114.237645 87.7670182 114.564189 87.5843736 114.675639 87.3823901 114.728979 87.1829851 114.728979M13.6601421 114.728979C13.4607372 114.728979 13.2587537 114.675639 13.0761091 114.564189 12.5402083 114.237645 12.3678777 113.535121 12.6910512 112.994351 13.9678446 110.859024 15.9924066 109.353367 18.3917124 108.75492 20.7901587 108.156474 23.2771339 108.536357 25.3936628 109.824318 25.9295636 110.150862 26.1014645 110.853386 25.7782909 111.39459 25.4551174 111.934927 24.7580595 112.107956 24.2225884 111.782713 22.6247702 110.809587 20.7471835 110.524241 18.9357785 110.975244 17.1243736 111.427115 15.5957455 112.563729 14.6318116 114.176066 14.4190843 114.531665 14.0443405 114.728979 13.6601421 114.728979M33.2688264 37.1627968C32.6431074 37.1627968 32.1355702 36.6510816 32.1355702 36.0192434L32.1355702 30.5005249C32.1355702 29.8686867 32.6431074 29.3569715 33.2688264 29.3569715 33.8945455 29.3569715 34.4020826 29.8686867 34.4020826 30.5005249L34.4020826 36.0192434C34.4020826 36.6510816 33.8945455 37.1627968 33.2688264 37.1627968M40.2917488 43.417778C39.6660298 43.417778 39.1584926 42.9060628 39.1584926 42.2742246L39.1584926 32.8131307C39.1584926 32.1812926 39.6660298 31.6695773 40.2917488 31.6695773 40.9174678 31.6695773 41.425005 32.1812926 41.425005 32.8131307L41.425005 42.2742246C41.425005 42.9060628 40.9174678 43.417778 40.2917488 43.417778M70.6648198 37.1627968C70.0391008 37.1627968 69.5315636 36.6510816 69.5315636 36.0192434L69.5315636 30.5005249C69.5315636 29.8686867 70.0391008 29.3569715 70.6648198 29.3569715 71.2905388 29.3569715 71.798076 29.8686867 71.798076 30.5005249L71.798076 36.0192434C71.798076 36.6510816 71.2905388 37.1627968 70.6648198 37.1627968M63.6418975 43.417778C63.0161785 43.417778 62.5086413 42.9060628 62.5086413 42.2742246L62.5086413 32.8131307C62.5086413 32.1812926 63.0161785 31.6695773 63.6418975 31.6695773 64.2676165 31.6695773 64.7751537 32.1812926 64.7751537 32.8131307L64.7751537 42.2742246C64.7751537 42.9060628 64.2676165 43.417778 63.6418975 43.417778"/>
      <polygon fill="#FEFEFE" points="70.746 24.332 51.967 30.501 33.188 24.332 33.188 8.273 51.967 2.105 70.746 8.273"/>
      <polygon fill="#FBDB6E" points="51.967 1.641 31.697 8.299 31.696 8.299 31.697 8.299 31.697 12.974 51.967 19.632 72.238 12.974 72.238 8.299"/>
      <path fill="#2C2A66" d="M69.4570017 23.3876401L53.256638 28.7090447 53.256638 20.5766757 69.4570017 15.2557049 69.4570017 23.3876401zM34.4769025 15.2552712L50.6781256 20.5766757 50.6781256 28.7090447 34.4769025 23.3876401 34.4769025 15.2552712zM32.9860926 10.0904168L50.6781256 15.9009864 50.6781256 17.8403003 32.9860926 12.0297307 32.9860926 10.0904168zM51.9673818 3.00923236L68.0719107 8.29854628 51.9673818 13.5882939 35.8624231 8.29897994 51.9673818 3.00923236zM70.9486711 12.0297307L53.256638 17.8403003 53.256638 15.9009864 70.9486711 10.0899832 70.9486711 12.0297307zM72.6367372 7.06175663L52.3661917.403821359C52.1070512.318824595 51.8277124.318824595 51.5681421.403821359L31.3113488 7.05698641C31.2773983 7.06782783 31.2438777 7.07997023 31.2116463 7.09297994 30.7277455 7.29072751 30.4067207 7.76644919 30.4067207 8.29897994 30.4067207 8.31459159 30.4071504 8.33020324 30.4075802 8.34581489L30.4075802 12.9742356C30.4075802 13.537556 30.7668529 14.0371288 31.2975967 14.2110252L31.8983901 14.4083392 31.8983901 24.332145C31.8983901 24.895899 32.2572331 25.3950382 32.7884066 25.5693683L51.5681421 31.7372712C51.596076 31.7468117 51.6257289 31.7511482 51.6545223 31.7585204 51.6811669 31.7650252 51.7065223 31.7723974 51.7340264 31.7776013 51.8109521 31.791912 51.8891669 31.8014524 51.9673818 31.8014524 52.0451669 31.8014524 52.1233818 31.791912 52.2007372 31.7776013 52.2278116 31.7723974 52.2535967 31.7650252 52.2798116 31.7585204 52.3090347 31.7511482 52.3382579 31.7468117 52.3661917 31.7372712L71.1454975 25.5693683C71.6762413 25.3950382 72.035514 24.895899 72.035514 24.332145L72.035514 14.4087728 72.6367372 14.2110252C73.1679107 14.0371288 73.5271835 13.537556 73.5271835 12.9742356L73.5271835 8.29897994C73.5271835 7.73522589 73.1679107 7.23608673 72.6367372 7.06175663zM33.6121554 64.6350084C33.6121554 64.87829 33.5627339 65.2039663 33.3276595 65.3756945 33.1071967 65.5370149 32.7436264 65.5508919 32.3323537 65.4151573L29.8466678 64.5933773 29.8466678 55.3577851 31.5308661 55.9124324C32.6396264 56.2775715 33.6121554 57.5577269 33.6121554 58.652277L33.6121554 64.6350084zM32.3310645 53.4388531L28.9575107 52.3282576C28.5647174 52.1990278 28.1345355 52.267112 27.8006182 52.5121282 27.4658413 52.7567107 27.2681554 53.1483029 27.2681554 53.5650472L27.2681554 78.8229631C27.2681554 79.5419663 27.8453124 80.123934 28.5574116 80.123934 29.2699405 80.123934 29.8466678 79.5419663 29.8466678 78.8229631L29.8466678 67.3314874 31.5304364 67.8883029C32.7384694 68.2859663 33.9447835 68.138523 34.841676 67.4819663 35.6990314 66.8544647 36.1906678 65.8167236 36.1906678 64.6350084L36.1906678 58.652277C36.1906678 56.4414939 34.4952959 54.1517851 32.3310645 53.4388531zM39.2056364 55.7706699C38.4935372 55.7706699 37.9163802 56.3530712 37.9163802 57.0716408L37.9163802 82.3312913C37.9163802 83.0498608 38.4935372 83.6322621 39.2056364 83.6322621 39.9177355 83.6322621 40.4948926 83.0498608 40.4948926 82.3312913L40.4948926 57.0716408C40.4948926 56.3530712 39.9177355 55.7706699 39.2056364 55.7706699M19.3186876 69.8869845L20.7390182 60.3560718 22.0957455 70.8011333 19.3186876 69.8869845zM22.1043405 50.8498777C22.0209686 50.2071981 21.4807702 49.7241042 20.8382909 49.718033L20.8262579 49.718033C20.1885058 49.718033 19.6461587 50.1885508 19.5511835 50.8255929L15.9636132 74.9026608C15.8578942 75.6134246 16.3426545 76.2760524 17.0470182 76.382732 17.7513818 76.4863761 18.408043 76.0002466 18.513762 75.2899165L18.9301917 72.496732 22.4670512 73.6606673 22.9758777 77.577457C23.0609686 78.2327126 23.614919 78.7097353 24.2522413 78.7097353 24.3081091 78.7097353 24.3648364 78.706266 24.4215636 78.6984602 25.1276463 78.6052239 25.6248694 77.9521366 25.5324727 77.2396382L22.1043405 50.8498777zM8.25927603 48.2477191L9.94304463 48.8019327C11.051805 49.1679392 12.0247636 50.4476608 12.0247636 51.5413437L12.0247636 57.5236414C12.0247636 57.766923 11.9749124 58.0934667 11.7394083 58.2660621 11.5193752 58.4273825 11.1553752 58.4416932 10.744962 58.3059586L8.25927603 57.483745 8.25927603 48.2477191zM10.743243 46.3287871L7.37011901 45.2177579C6.97732562 45.0889618 6.5471438 45.157046 6.21279669 45.4016285 5.87844959 45.646211 5.68076364 46.0378032 5.68076364 46.4545476L5.68076364 71.7141981C5.68076364 72.4332013 6.25792066 73.0151689 6.97001983 73.0151689 7.68211901 73.0151689 8.25927603 72.4332013 8.25927603 71.7141981L8.25927603 60.221855 9.70625124 60.7006123 11.6680694 73.875978C11.7639041 74.5212595 12.3139868 74.9835379 12.9414248 74.9835379 13.0050281 74.9835379 13.0694909 74.9792013 13.1343835 74.9692272 13.8383174 74.8625476 14.3235074 74.1999197 14.2177884 73.4895896L12.3328959 60.8302757C12.6625157 60.7253307 12.974086 60.5765864 13.252995 60.372334 14.1112099 59.7443987 14.603276 58.7062239 14.603276 57.5236414L14.603276 51.5413437C14.603276 49.3318615 12.9079041 47.0425864 10.743243 46.3287871zM80.2226347 73.7962285C80.2226347 74.8907786 79.249676 76.1718013 78.1413455 76.5378078L78.1409157 76.5378078C77.7270645 76.6748434 77.3652132 76.6596654 77.1456099 76.4992123 76.9105355 76.3270505 76.861114 76.0005068 76.861114 75.7567916L76.861114 56.4915812C76.861114 55.3978984 77.833643 54.1168757 78.9424033 53.7504356 79.3549653 53.614701 79.7185355 53.628578 79.9381388 53.7898984 80.1732132 53.9620602 80.2226347 54.2881702 80.2226347 54.5318854L80.2226347 73.7962285zM81.4521554 51.6836265C80.5552628 51.0279372 79.3489488 50.8800602 78.1409157 51.2777236 78.1409157 51.2777236 78.140486 51.2777236 78.1400562 51.2777236 75.977114 51.9923903 74.2826017 54.2825327 74.2826017 56.4915812L74.2826017 75.7567916C74.2826017 76.9398078 74.774238 77.9784162 75.6315934 78.6059178 76.1971471 79.0191929 76.8856099 79.2308175 77.6200562 79.2308175 78.050238 79.2308175 78.4958909 79.1579631 78.9424033 79.0109534 78.9428331 79.0105197 78.9436926 79.0100861 78.9445521 79.0100861 81.1074942 78.2954194 82.8011471 76.0061443 82.8011471 73.7962285L82.8011471 54.5318854C82.8011471 53.3493029 82.3095107 52.3111282 81.4521554 51.6836265zM69.7834843 77.2409392C69.7834843 78.3350557 68.8109554 79.6160783 67.703914 79.9812175L66.0179967 80.5349974 66.0179967 69.9871592 68.5032529 69.1718841C68.5208727 69.1662466 68.5376331 69.1580071 68.5548231 69.1523696 68.945038 69.0348485 69.2884099 69.0495929 69.4989884 69.2044084 69.7340628 69.3761366 69.7834843 69.7022466 69.7834843 69.9459618L69.7834843 77.2409392zM68.5032529 57.1955799C68.9153851 57.0598453 69.2793851 57.0737223 69.4989884 57.2350427 69.7340628 57.4067709 69.7834843 57.7328809 69.7834843 57.9761625L69.7834843 63.9584602C69.7834843 65.0391333 68.8345917 66.2976058 67.7451702 66.6800913 67.7309884 66.6848615 67.7168066 66.6870298 67.7026248 66.6918L66.0179967 67.2473146 66.0179967 58.0156252 68.5032529 57.1955799zM71.013005 55.1287709C70.1165421 54.4726479 68.9097983 54.3243372 67.7026248 54.7224343L64.3286413 55.8351981C63.7978975 56.0099618 63.4394843 56.509101 63.4394843 57.0719877L63.4394843 82.3312045C63.4394843 83.0502078 64.0166413 83.6321754 64.7287405 83.6321754 64.892476 83.6321754 65.0476165 83.5983502 65.1920132 83.5419748 65.1933025 83.5415411 65.1945917 83.5415411 65.195881 83.5411074L65.2135008 83.5354699C65.2195174 83.5333016 65.2263934 83.5320006 65.2319802 83.5293987L68.5036826 82.4547968C70.6674843 81.7409974 72.3619967 79.450855 72.3619967 77.2409392L72.3619967 69.9459618C72.3619967 68.8375346 71.9253686 67.8605055 71.1651372 67.2251981 71.9047405 66.2676835 72.3619967 65.1033146 72.3619967 63.9584602L72.3619967 57.9761625C72.3619967 56.7940136 71.8699306 55.7562725 71.013005 55.1287709zM93.742162 48.2403469C93.9226579 47.5451948 93.5105256 46.8339974 92.8216331 46.6518615 92.1344595 46.4697256 91.4283769 46.8856026 91.2474512 47.5807547L90.4223273 50.7555573C90.4201785 50.7650977 90.4180298 50.7746382 90.4154512 50.7846123L88.8215008 56.9208583 86.7139967 49.8509489C86.509005 49.1631689 85.7900298 48.773745 85.1080132 48.979732 84.4259967 49.1870201 84.0400793 49.9120945 84.2446413 50.6003081L87.614757 61.907046 87.614757 74.3543016C87.614757 75.0728712 88.191914 75.6552725 88.9040132 75.6552725 89.6161124 75.6552725 90.1932694 75.0728712 90.1932694 74.3543016L90.1932694 61.9018421 93.742162 48.2403469zM98.1807273 59.711701C97.9456529 59.0338951 97.2103471 58.6761282 96.5382149 58.9133385L93.5484298 59.9688595C92.8758678 60.2060699 92.5217521 60.948057 92.7568264 61.6262964 92.9429091 62.1622964 93.4414215 62.4979469 93.9738843 62.4979469 94.114843 62.4979469 94.2588099 62.4745294 94.3993388 62.4246589L97.389124 61.3691379C98.061686 61.1319275 98.4158017 60.3899405 98.1807273 59.711701"/>
    </g>
  </g>
</svg>
