<svg xmlns="http://www.w3.org/2000/svg" xmlns:xlink="http://www.w3.org/1999/xlink" width="56" height="65" viewBox="0 0 56 65">
  <defs>
    <polygon id="pedido-a" points=".109 .302 32.356 .302 32.356 40.784 .109 40.784"/>
    <polygon id="pedido-c" points="0 .042 55.407 .042 55.407 40.253 0 40.253"/>
  </defs>
  <g fill="none" fill-rule="evenodd">
    <polygon fill="#30ADD5" points="27.704 63.046 13.491 26.387 41.915 26.387"/>
    <g transform="translate(0 .595)">
      <g transform="translate(11.47 23.578)">
        <mask id="pedido-b" fill="#fff">
          <use xlink:href="#pedido-a"/>
        </mask>
        <path fill="#2C2A66" d="M4.81242157,4.12565196 L16.2333039,33.5833971 L27.6529118,4.12565196 L4.81242157,4.12565196 Z M16.2333039,40.7843775 C15.4443824,40.7843775 14.7357549,40.2994265 14.450902,39.5633971 L0.238205882,2.90467157 C0.0100686275,2.31712255 0.0871764706,1.65437745 0.443401961,1.1337402 C0.799627451,0.613102941 1.38972549,0.302122549 2.02060784,0.302122549 L30.4447255,0.302122549 C31.0756078,0.302122549 31.6657059,0.613102941 32.0219314,1.1337402 C32.3781569,1.65437745 32.4552647,2.31712255 32.2271275,2.90467157 L18.0157059,39.5633971 C17.7302157,40.2994265 17.0222255,40.7843775 16.2333039,40.7843775 Z" mask="url(#pedido-b)"/>
      </g>
      <path fill="#2C2A66" d="M3.91312745 47.2122402C2.85719608 47.2122402 2.00136275 46.3564069 2.00136275 45.3004755L2.00136275 38.3410147C2.00136275 37.2850833 2.85719608 36.42925 3.91312745 36.42925 4.96905882 36.42925 5.82489216 37.2850833 5.82489216 38.3410147L5.82489216 45.3004755C5.82489216 46.3564069 4.96905882 47.2122402 3.91312745 47.2122402M12.8483971 55.0989069C11.7924657 55.0989069 10.9366324 54.2430735 10.9366324 53.1871422L10.9366324 41.2583676C10.9366324 40.2024363 11.7924657 39.3466029 12.8483971 39.3466029 13.9043284 39.3466029 14.7601618 40.2024363 14.7601618 41.2583676L14.7601618 53.1871422C14.7601618 54.2430735 13.9043284 55.0989069 12.8483971 55.0989069M51.4938284 47.2122402C50.4378971 47.2122402 49.5820637 46.3564069 49.5820637 45.3004755L49.5820637 38.3410147C49.5820637 37.2850833 50.4378971 36.42925 51.4938284 36.42925 52.5497598 36.42925 53.4055931 37.2850833 53.4055931 38.3410147L53.4055931 45.3004755C53.4055931 46.3564069 52.5497598 47.2122402 51.4938284 47.2122402M42.5572843 55.0989069C41.5013529 55.0989069 40.6455196 54.2430735 40.6455196 53.1871422L40.6455196 41.2583676C40.6455196 40.2024363 41.5013529 39.3466029 42.5572843 39.3466029 43.6132157 39.3466029 44.469049 40.2024363 44.469049 41.2583676L44.469049 53.1871422C44.469049 54.2430735 43.6132157 55.0989069 42.5572843 55.0989069"/>
      <polygon fill="#FEFEFE" points="51.598 30.564 27.704 38.341 3.809 30.564 3.809 10.316 27.704 2.538 51.598 10.316"/>
      <polygon fill="#FADA6D" points="27.704 1.953 1.913 10.347 1.912 10.347 1.913 10.348 1.913 16.242 27.704 24.638 53.495 16.242 53.495 10.347"/>
      <mask id="pedido-d" fill="#fff">
        <use xlink:href="#pedido-c"/>
      </mask>
      <path fill="#2C2A66" d="M49.686,29.1758873 L29.6156569,35.70775 L29.6156569,26.0259363 L49.686,19.492799 L49.686,29.1758873 Z M5.72114706,19.4921618 L25.7921275,26.0259363 L25.7921275,35.70775 L5.72114706,29.1758873 L5.72114706,19.4921618 Z M3.82467647,12.9806912 L25.7921275,20.1306912 L25.7921275,22.0048578 L3.82467647,14.8542206 L3.82467647,12.9806912 Z M27.7038922,3.96417157 L47.3179608,10.3475539 L27.7038922,16.7322108 L8.08982353,10.3475539 L27.7038922,3.96417157 Z M51.5837451,14.8542206 L29.6156569,22.0048578 L29.6156569,20.1306912 L51.5837451,12.9800539 L51.5837451,14.8542206 Z M54.0868824,8.53010294 L28.295902,0.135544118 C27.911,0.0106421569 27.4967843,0.0106421569 27.1118824,0.135544118 L1.34256863,8.52245588 C1.29031373,8.53902451 1.23869608,8.5575049 1.18771569,8.57853431 C0.473352941,8.87039706 -0.00012745098,9.56691667 -0.00012745098,10.3475539 C-0.00012745098,10.3711324 0.000509803922,10.3940735 0.00114705882,10.4170147 L0.00114705882,16.2421618 C0.00114705882,17.0699559 0.533892157,17.8040735 1.32090196,18.06025 L1.89761765,18.2476029 L1.89761765,30.5644657 C1.89761765,31.3922598 2.43036275,32.1257402 3.21737255,32.3819167 L27.1118824,40.1589755 C27.1539412,40.1723578 27.1972745,40.1787304 27.2399706,40.190201 C27.2794804,40.1991225 27.3170784,40.2105931 27.3578627,40.2182402 C27.4725686,40.2392696 27.5879118,40.252652 27.7038922,40.252652 C27.8198725,40.252652 27.9352157,40.2392696 28.0499216,40.2182402 C28.0900686,40.2105931 28.1283039,40.1991225 28.1671765,40.190201 C28.2105098,40.1787304 28.2538431,40.1723578 28.295902,40.1589755 L52.1897745,32.3819167 C52.9767843,32.1257402 53.5095294,31.3922598 53.5095294,30.5644657 L53.5095294,18.3240735 C53.5095294,18.2992206 53.5044314,18.2750049 53.5037941,18.2495147 L54.0868824,18.06025 C54.8745294,17.8040735 55.4072745,17.0699559 55.4072745,16.2421618 L55.4072745,10.3475539 C55.4072745,9.5197598 54.8745294,8.78564216 54.0868824,8.53010294 Z" mask="url(#pedido-d)"/>
    </g>
  </g>
</svg>
